<?xml version="1.0" encoding="utf-8"?>
<!-- Generator: Adobe Illustrator 22.1.0, SVG Export Plug-In . SVG Version: 6.00 Build 0)  -->
<svg version="1.1" xmlns="http://www.w3.org/2000/svg" xmlns:xlink="http://www.w3.org/1999/xlink" x="0px" y="0px"
	 viewBox="0 0 670.2 652.3" style="enable-background:new 0 0 670.2 652.3;" xml:space="preserve">
<style type="text/css">
	.st0{fill:#186B9E;}
	.st1{fill:#66BC46;}
	.st2{display:none;}
	.st3{display:inline;fill:#FFFFFF;}
</style>
<g id="water">
	<g id="Ebene_3">
		<g id="Ebene_21">
			<g>
				<path class="st0" d="M631.1,336.8c0,2.8,0,5.5-0.1,8.3c-0.2,6.9-0.6,13.7-1.2,20.5c0,0.2,0,0.5-0.1,0.7c-0.3,3-0.6,6.1-1,9.1
					c-0.1,0.6-0.1,1.1-0.2,1.7c-0.1,0.5-0.1,1.1-0.2,1.6c-0.1,0.6-0.2,1.2-0.2,1.8c-0.1,0.8-0.2,1.6-0.3,2.3
					c-0.1,0.8-0.2,1.6-0.4,2.3c-0.1,0.8-0.2,1.5-0.4,2.3c-0.1,0.8-0.2,1.5-0.4,2.3c-0.1,0.8-0.3,1.5-0.4,2.3c-0.5,3-1.1,5.9-1.7,8.9
					c-0.1,0.5-0.2,1-0.3,1.5c-0.7,3.3-1.5,6.6-2.3,9.9c-0.4,1.5-0.8,3-1.1,4.5c-1.2,4.7-2.6,9.4-4,14c-0.4,1.3-0.8,2.6-1.2,3.9
					c-0.5,1.5-1,2.9-1.5,4.4c-35.4,103.4-123,182.6-231.4,206.1c-21.7,4.7-44.1,7.2-67.2,7.2c-35.2,0-69-5.8-100.7-16.4
					c-42.4-14.3-80.8-37.3-113-66.9c-4.5-4.1-8.8-8.3-13-12.7c0,0,0,0-0.1-0.1c-0.9-0.9-1.7-1.8-2.6-2.7c-0.5-0.5-1-1.1-1.5-1.6
					c-0.5-0.6-1-1.1-1.5-1.7c-0.3-0.3-0.6-0.7-1-1c-0.8-0.9-1.7-1.8-2.5-2.7c-1-1.1-2-2.2-2.9-3.3c-0.3-0.4-0.7-0.8-1-1.2
					c-0.7-0.8-1.4-1.6-2-2.4c-0.2-0.2-0.3-0.4-0.5-0.6c-0.9-1-1.7-2.1-2.6-3.1c-0.1-0.1-0.2-0.2-0.2-0.3c-0.9-1.1-1.8-2.2-2.6-3.3
					c-0.2-0.3-0.4-0.5-0.6-0.8c-0.6-0.8-1.2-1.6-1.9-2.4c-0.4-0.5-0.8-1-1.1-1.5c-0.1-0.1-0.2-0.2-0.3-0.4c-0.6-0.8-1.2-1.6-1.8-2.5
					c0-0.1-0.1-0.1-0.1-0.2c-1.3-1.8-2.6-3.6-3.9-5.4c0-0.1-0.1-0.1-0.1-0.2c-0.6-0.9-1.3-1.8-1.9-2.7c0-0.1-0.1-0.1-0.1-0.2
					c-0.6-0.9-1.3-1.9-1.9-2.8c-2.1-3.1-4.1-6.2-6.1-9.4c-0.3-0.4-0.5-0.8-0.8-1.2c-0.9-1.5-1.9-3.1-2.8-4.7
					C16.2,450.8,0,395.7,0,336.8c0-4.4,0.1-8.8,0.3-13.2c0.2-4.5,0.5-9.1,0.9-13.6c0.4-4.7,0.9-9.3,1.5-13.9
					c0.7-5.6,1.6-11.1,2.6-16.6c2.4-13.1,5.6-25.9,9.6-38.4c8.8-27.7,21.3-53.7,37-77.5c1.3-2,2.6-4,4-6
					c11.3-16.4,24.2-31.7,38.4-45.7c57-56.1,135.1-90.7,221.4-90.7c9.5,0,19,0.4,28.3,1.2h0c5.5,0.5,11,1.1,16.4,1.9
					c28,4,54.8,11.6,79.9,22.4c1.2,0.5,2.4,1,3.6,1.6c33.9,15.1,64.7,36,91.1,61.5c21.6,20.9,40.2,44.8,55.2,71.1
					c9.5,16.7,17.5,34.3,23.9,52.8c0.3,0.8,0.5,1.6,0.8,2.4c0.2,0.7,0.5,1.5,0.7,2.2c0.3,0.8,0.5,1.5,0.8,2.3c0.5,1.5,1,3.1,1.4,4.6
					c0.2,0.5,0.3,1.1,0.5,1.6c0.1,0.4,0.2,0.8,0.3,1.2c0.2,0.6,0.4,1.2,0.6,1.9c0.4,1.3,0.8,2.7,1.1,4c0.3,1.1,0.6,2.1,0.8,3.2
					c0.2,0.7,0.4,1.3,0.5,2c0,0.1,0.1,0.3,0.1,0.5c0.2,0.9,0.4,1.8,0.7,2.6c0.1,0.4,0.2,0.8,0.3,1.2c0.2,1,0.5,2,0.7,3
					c0.1,0.6,0.3,1.3,0.4,1.9c0.2,1,0.4,1.9,0.6,2.9c0.2,0.8,0.3,1.6,0.5,2.4c0.5,2.3,0.9,4.5,1.3,6.8c0.2,0.9,0.3,1.8,0.5,2.6
					c0.3,1.9,0.6,3.8,0.9,5.7c0.1,1,0.3,2,0.4,3c0.1,1,0.3,2,0.4,3c0.1,0.8,0.2,1.5,0.3,2.3c0.1,0.6,0.2,1.3,0.2,2
					c0,0.4,0.1,0.8,0.1,1.1c0.1,0.8,0.2,1.5,0.3,2.3c0,0.2,0,0.4,0.1,0.5c0.1,0.8,0.2,1.7,0.2,2.5c0.1,0.6,0.1,1.3,0.2,1.9
					c0,0.4,0.1,0.8,0.1,1.2c0,0.6,0.1,1.2,0.2,1.9c0.1,1.1,0.2,2.2,0.2,3.2c0.1,1.1,0.1,2.2,0.2,3.2c0.1,1.9,0.2,3.8,0.3,5.6
					c0,0.5,0,1,0.1,1.4c0,0.7,0,1.4,0.1,2c0.1,2.1,0.1,4.2,0.1,6.4c0,0.4,0,0.8,0,1.3C631.1,334.8,631.1,335.8,631.1,336.8z"/>
			</g>
		</g>
	</g>
</g>
<g id="land">
	<path class="st1" d="M187.4,199.3c0,11.5-4.7,22-12.2,29.5c-7.5,7.6-18,12.2-29.5,12.2H14.8c8.8-27.7,21.3-53.7,37-77.5
		c1.3-2,2.6-4,4-6h89.9C168.7,157.6,187.4,176.3,187.4,199.3z"/>
	<path class="st1" d="M446,184.8H319.5c-14.8,0-26.8-12-26.8-26.8v0c0-14.8,12-26.8,26.8-26.8H446c14.8,0,26.8,12,26.8,26.8v0
		C472.8,172.8,460.8,184.8,446,184.8z"/>
	<path class="st1" d="M631.1,336.8c0,2.8,0,5.5-0.1,8.3H456.3c-30.7,0-55.6-24.9-55.6-55.6c0-15.4,6.2-29.3,16.3-39.3
		c10.1-10.1,24-16.3,39.3-16.3h157.6c0.3,0.8,0.5,1.6,0.8,2.4c0.2,0.7,0.5,1.5,0.7,2.2c0.3,0.8,0.5,1.5,0.8,2.3
		c0.5,1.5,1,3.1,1.4,4.6c0.2,0.5,0.3,1.1,0.5,1.6c0.1,0.4,0.2,0.8,0.3,1.2c0.2,0.6,0.4,1.2,0.6,1.9c0.4,1.3,0.8,2.7,1.1,4
		c0.3,1.1,0.6,2.1,0.8,3.2c0.2,0.7,0.4,1.3,0.5,2c0,0.1,0.1,0.3,0.1,0.5c0.2,0.9,0.4,1.8,0.7,2.6c0.1,0.4,0.2,0.8,0.3,1.2
		c0.2,1,0.5,2,0.7,3c0.1,0.6,0.3,1.3,0.4,1.9c0.2,1,0.4,1.9,0.6,2.9c0.2,0.8,0.3,1.6,0.5,2.4c0.5,2.3,0.9,4.5,1.3,6.8
		c0.2,0.9,0.3,1.8,0.5,2.6c0.3,1.9,0.6,3.8,0.9,5.7c0.1,1,0.3,2,0.4,3c0.1,1,0.3,2,0.4,3c0.1,0.8,0.2,1.5,0.3,2.3
		c0.1,0.6,0.2,1.3,0.2,2c0,0.4,0.1,0.8,0.1,1.1c0.1,0.8,0.2,1.5,0.3,2.3c0,0.2,0,0.4,0.1,0.5c0.1,0.8,0.2,1.7,0.2,2.5
		c0.1,0.6,0.1,1.3,0.2,1.9c0,0.4,0.1,0.8,0.1,1.2c0,0.6,0.1,1.2,0.2,1.9c0.1,1.1,0.2,2.2,0.2,3.2c0.1,1.1,0.1,2.2,0.2,3.2
		c0.1,1.9,0.2,3.8,0.3,5.6c0,0.5,0,1,0.1,1.4c0,0.7,0,1.4,0.1,2c0.1,2.1,0.1,4.2,0.1,6.4c0,0.4,0,0.8,0,1.3
		C631.1,334.8,631.1,335.8,631.1,336.8z"/>
	<path class="st1" d="M629.8,365.6c0,0.2,0,0.5-0.1,0.7c-0.3,3-0.6,6.1-1,9.1c-0.1,0.6-0.1,1.1-0.2,1.7c-0.1,0.5-0.1,1.1-0.2,1.6
		c-0.1,0.6-0.2,1.2-0.2,1.8c-0.1,0.8-0.2,1.6-0.3,2.3c-0.1,0.8-0.2,1.6-0.4,2.3c-0.1,0.8-0.2,1.5-0.4,2.3c-0.1,0.8-0.2,1.5-0.4,2.3
		c-0.1,0.8-0.3,1.5-0.4,2.3c-0.5,3-1.1,5.9-1.7,8.9c-0.1,0.5-0.2,1-0.3,1.5c-0.7,3.3-1.5,6.6-2.3,9.9c-0.4,1.5-0.8,3-1.1,4.5
		c-1.2,4.7-2.6,9.4-4,14c-0.4,1.3-0.8,2.6-1.2,3.9c-0.5,1.5-1,2.9-1.5,4.4h-86c-20.3,0-36.8-16.5-36.8-36.8c0-10.2,4.1-19.3,10.8-26
		c6.6-6.7,15.8-10.8,26-10.8H629.8z"/>
	<path class="st1" d="M356.3,471.5H170.2c-25.6,0-46.4-20.8-46.4-46.4v0c0-25.6,20.8-46.4,46.4-46.4h186.1
		c25.6,0,46.4,20.8,46.4,46.4v0C402.6,450.8,381.9,471.5,356.3,471.5z"/>
	<path class="st1" d="M343,527.1c0,8-3.3,15.3-8.5,20.6c-5.3,5.3-12.5,8.5-20.6,8.5h-225c0,0,0,0-0.1-0.1c-0.9-0.9-1.7-1.8-2.6-2.7
		c-0.5-0.5-1-1.1-1.5-1.6c-0.5-0.6-1-1.1-1.5-1.7c-0.3-0.3-0.6-0.7-1-1c-0.8-0.9-1.7-1.8-2.5-2.7c-1-1.1-2-2.2-2.9-3.3
		c-0.3-0.4-0.7-0.8-1-1.2c-0.7-0.8-1.4-1.6-2-2.4c-0.2-0.2-0.3-0.4-0.5-0.6c-0.9-1-1.7-2.1-2.6-3.1c-0.1-0.1-0.2-0.2-0.2-0.3
		c-0.9-1.1-1.8-2.2-2.6-3.3c-0.2-0.3-0.4-0.5-0.6-0.8c-0.6-0.8-1.2-1.6-1.9-2.4c-0.4-0.5-0.8-1-1.1-1.5c-0.1-0.1-0.2-0.2-0.3-0.4
		c-0.6-0.8-1.2-1.6-1.8-2.5c0-0.1-0.1-0.1-0.1-0.2c-1.3-1.8-2.6-3.6-3.9-5.4c0-0.1-0.1-0.1-0.1-0.2c-0.6-0.9-1.3-1.8-1.9-2.7
		c0-0.1-0.1-0.1-0.1-0.2c-0.6-0.9-1.3-1.9-1.9-2.8c-2.1-3.1-4.1-6.2-6.1-9.4c-0.3-0.4-0.5-0.8-0.8-1.2c-0.9-1.5-1.9-3.1-2.8-4.7
		h269.6C330,498,343,511,343,527.1z"/>
	<path class="st1" d="M443.8,48.3h-80.5c-11.2,0-20.2-9-20.2-20.2c0-2,0.3-3.9,0.8-5.7h0c5.5,0.5,11,1.1,16.4,1.9
		c28,4,54.8,11.6,79.9,22.4C441.4,47.3,442.6,47.8,443.8,48.3z"/>
	<path class="st1" d="M123.8,294.7c0,8.4-6.8,15.2-15.2,15.2H1.1c0.4-4.7,0.9-9.3,1.5-13.9c0.7-5.6,1.6-11.1,2.6-16.6h103.4
		c4.2,0,8,1.7,10.8,4.5C122.1,286.7,123.8,290.5,123.8,294.7z"/>
	<path class="st1" d="M382.8,644.4c0,0.3,0,0.5,0,0.8c-21.7,4.7-44.1,7.2-67.2,7.2c-35.2,0-69-5.8-100.7-16.4
		c3.3-8.2,11.4-14.1,20.9-14.1h124.5c6.2,0,11.8,2.5,15.9,6.6C380.2,632.5,382.8,638.1,382.8,644.4z"/>
</g>
</svg>
