<?xml version="1.0" encoding="utf-8"?>
<!-- Generator: Adobe Illustrator 22.1.0, SVG Export Plug-In . SVG Version: 6.00 Build 0)  -->
<svg version="1.1" xmlns="http://www.w3.org/2000/svg" xmlns:xlink="http://www.w3.org/1999/xlink" x="0px" y="0px"
	 viewBox="0 0 670.2 652.3" style="enable-background:new 0 0 670.2 652.3;" xml:space="preserve">
<style type="text/css">
	.st0{display:none;}
	.st1{display:inline;}
	.st2{fill:#186B9E;}
	.st3{display:inline;fill:#66BC46;}
	.st4{fill:#FFFFFF;}
</style>
<g id="clouds">
	<path class="st4" d="M389.7,148.3h-68.9c-9,0-16.2-7.3-16.2-16.2v0c0-9,7.3-16.2,16.2-16.2h68.9c9,0,16.2,7.3,16.2,16.2v0
		C406,141.1,398.7,148.3,389.7,148.3z"/>
	<path class="st4" d="M629.5,305.7H460.2c-22.5,0-40.7-18.2-40.7-40.7v0c0-22.5,18.2-40.7,40.7-40.7h169.3
		c22.5,0,40.7,18.2,40.7,40.7v0C670.2,287.5,652,305.7,629.5,305.7z"/>
	<path class="st4" d="M270.2,241.1h-48.3c-19,0-34.4,15.4-34.4,34.4v0c0,19,15.4,34.4,34.4,34.4h48.3c19,0,34.4-15.4,34.4-34.4v0
		C304.6,256.5,289.2,241.1,270.2,241.1z"/>
	<path class="st4" d="M126.3,132.1H39.3c-21.6,0-39.1,17.5-39.1,39.1v0c0,21.6,17.5,39.1,39.1,39.1h86.9c21.6,0,39.1-17.5,39.1-39.1
		v0C165.3,149.6,147.8,132.1,126.3,132.1z"/>
	<path class="st4" d="M102.6,289.4H36.4c-9.1,0-16.6,7.4-16.6,16.6v0c0,9.1,7.4,16.6,16.6,16.6h66.2c9.1,0,16.6-7.4,16.6-16.6v0
		C119.2,296.8,111.8,289.4,102.6,289.4z"/>
	<path class="st4" d="M361.6,417.2h-93.4c-15,0-27.2-12.2-27.2-27.2v0c0-15,12.2-27.2,27.2-27.2h93.4c15,0,27.2,12.2,27.2,27.2v0
		C388.7,405.1,376.6,417.2,361.6,417.2z"/>
	<path class="st4" d="M624.2,419.9h-82.8c-16.6,0-30.1-13.5-30.1-30.1v0c0-16.6,13.5-30.1,30.1-30.1h82.8
		c16.6,0,30.1,13.5,30.1,30.1v0C654.3,406.4,640.8,419.9,624.2,419.9z"/>
	<path class="st4" d="M368.2,605.9h-65.6c-8,0-14.6,6.5-14.6,14.6l0,0c0,8,6.5,14.6,14.6,14.6h65.6c8,0,14.6-6.5,14.6-14.6l0,0
		C382.8,612.5,376.3,605.9,368.2,605.9z"/>
	<path class="st4" d="M75.6,527.1H49.8c-11.3,0-20.5-9.2-20.5-20.5v0c0-11.3,9.2-20.5,20.5-20.5h25.8c11.3,0,20.5,9.2,20.5,20.5v0
		C96.1,517.9,86.9,527.1,75.6,527.1z"/>
	<path class="st4" d="M419.3,0l-51.7,0c-10.4,0-18.9,8.5-18.9,18.9v0c0,10.4,8.5,18.9,18.9,18.9h51.7c10.4,0,18.9-8.5,18.9-18.9v0
		C438.2,8.5,429.7,0,419.3,0z"/>
</g>
</svg>
